<?xml version="1.0" standalone="no"?>
<!DOCTYPE svg PUBLIC "-//W3C//DTD SVG 20010904//EN"
 "http://www.w3.org/TR/2001/REC-SVG-20010904/DTD/svg10.dtd">
<svg version="1.0" xmlns="http://www.w3.org/2000/svg"
 width="386.000000pt" height="96.000000pt" viewBox="0 0 386.000000 96.000000"
 preserveAspectRatio="xMidYMid meet">

<g transform="translate(0.000000,96.000000) scale(0.100000,-0.100000)"
fill="#000000" stroke="none">
<path d="M96 864 c-14 -13 -16 -62 -16 -384 0 -322 2 -371 16 -384 14 -14 194
-16 1834 -16 1640 0 1820 2 1834 16 14 13 16 62 16 384 0 322 -2 371 -16 384
-14 14 -194 16 -1834 16 -1640 0 -1820 -2 -1834 -16z m764 -384 l0 -380 -380
0 -380 0 0 380 0 380 380 0 380 0 0 -380z m1620 87 c0 -31 2 -33 29 -29 41 6
61 -27 61 -100 0 -55 -1 -58 -25 -58 -22 0 -24 4 -27 58 -2 43 -7 57 -18 57
-11 0 -16 -14 -18 -57 -3 -54 -5 -58 -27 -58 l-25 0 0 110 0 110 25 0 c22 0
25 -4 25 -33z m920 -77 l0 -110 -25 0 -25 0 0 110 0 110 25 0 25 0 0 -110z
m-2175 75 c14 -13 25 -29 25 -35 0 -16 -47 -12 -54 6 -3 9 -15 14 -28 12 -38
-5 -31 -27 15 -47 55 -24 74 -53 58 -87 -27 -61 -151 -46 -151 18 0 24 25 23
50 -2 22 -22 29 -24 49 -11 20 13 5 29 -40 48 -60 24 -76 66 -39 103 29 29 84
27 115 -5z m85 5 c0 -15 -7 -20 -25 -20 -24 0 -34 18 -18 33 15 15 43 7 43
-13z m475 0 c0 -8 -10 -16 -22 -18 -18 -3 -23 2 -23 18 0 16 5 21 23 18 12 -2
22 -10 22 -18z m520 0 c0 -8 -10 -16 -22 -18 -18 -3 -23 2 -23 18 0 16 5 21
23 18 12 -2 22 -10 22 -18z m503 4 c27 -19 30 -64 4 -64 -9 0 -23 9 -30 20
-26 42 -72 14 -72 -44 0 -49 30 -83 64 -70 23 9 20 34 -4 34 -14 0 -20 7 -20
21 0 18 5 20 43 17 35 -3 43 -7 45 -27 7 -46 -6 -70 -46 -82 -59 -17 -107 7
-122 60 -14 55 -4 107 27 131 31 24 80 26 111 4z m-418 -19 c0 -8 5 -15 10
-15 6 0 10 -9 10 -20 0 -11 -6 -20 -13 -20 -8 0 -11 -14 -9 -45 2 -25 8 -45
13 -45 15 0 10 -30 -5 -36 -8 -3 -24 -1 -35 6 -17 9 -21 20 -21 65 0 30 -4 55
-10 55 -5 0 -10 9 -10 20 0 11 5 20 10 20 6 0 10 7 10 15 0 9 9 15 25 15 16 0
25 -6 25 -15z m-1080 -95 c0 -79 0 -80 -25 -80 -24 0 -25 2 -25 73 0 79 3 87
32 87 16 0 18 -9 18 -80z m160 -13 c0 -70 -4 -95 -17 -109 -19 -21 -71 -24
-98 -5 -27 21 -10 39 30 31 20 -3 35 -1 40 6 5 7 -1 9 -19 4 -54 -13 -96 70
-65 129 17 31 27 36 81 35 l48 0 0 -91z m155 70 c9 -13 15 -44 15 -79 0 -55
-1 -58 -25 -58 -22 0 -24 4 -27 58 -2 43 -7 57 -18 57 -11 0 -16 -14 -18 -57
-3 -54 -5 -58 -27 -58 -24 0 -25 2 -25 79 l0 78 55 1 c45 0 58 -3 70 -21z
m163 -59 c3 -78 3 -78 -23 -78 -25 0 -25 1 -25 81 0 78 1 80 23 77 20 -3 22
-9 25 -80z m147 59 c9 -13 15 -44 15 -79 0 -55 -1 -58 -25 -58 -22 0 -24 4
-27 58 -2 43 -7 57 -18 57 -11 0 -16 -14 -18 -57 -3 -54 -5 -58 -27 -58 -24 0
-25 2 -25 79 l0 78 55 1 c45 0 58 -3 70 -21z m153 -19 l9 -43 12 43 c15 52 46
59 56 12 9 -43 22 -45 29 -5 5 26 12 35 26 35 24 0 25 -14 3 -96 -15 -54 -21
-64 -39 -64 -17 0 -24 8 -29 30 -9 43 -22 45 -29 5 -6 -28 -12 -35 -30 -35
-20 0 -25 9 -43 75 -11 41 -18 77 -15 80 3 3 13 5 23 5 13 0 20 -12 27 -42z
m220 -40 c3 -78 3 -78 -23 -78 -25 0 -25 1 -25 81 0 78 1 80 23 77 20 -3 22
-9 25 -80z m657 76 c25 -10 47 -62 40 -95 -7 -31 -48 -69 -75 -69 -10 0 -29 9
-44 21 -21 17 -26 29 -26 65 0 67 45 101 105 78z m184 -20 c46 -58 14 -138
-54 -138 -46 0 -75 31 -75 81 0 73 86 111 129 57z m171 -67 c0 -70 -4 -95 -17
-109 -19 -21 -71 -24 -98 -5 -27 21 -10 39 30 31 20 -3 35 -1 40 6 5 7 -1 9
-19 4 -54 -13 -96 70 -65 129 17 31 27 36 81 35 l48 0 0 -91z m218 77 c15 -11
22 -25 22 -50 0 -34 0 -34 -47 -34 -43 0 -46 -1 -31 -16 13 -13 20 -14 38 -4
17 9 25 9 34 0 19 -19 -31 -53 -69 -46 -64 13 -88 94 -40 141 28 29 61 32 93
9z"/>
<path d="M426 646 c-38 -14 -96 -62 -96 -79 0 -5 9 -16 21 -26 20 -16 22 -16
54 16 35 35 86 44 126 22 16 -8 25 -7 40 7 25 23 24 31 -9 48 -44 23 -94 27
-136 12z"/>
<path d="M480 480 c0 -29 1 -30 50 -30 53 0 61 -10 36 -45 -12 -18 -11 -22 10
-38 23 -17 24 -17 39 7 18 28 35 82 35 113 0 22 -3 23 -85 23 l-85 0 0 -30z"/>
<path d="M1387 494 c-12 -13 -7 -72 6 -77 24 -9 39 9 35 44 -3 32 -24 49 -41
33z"/>
<path d="M2912 488 c-30 -30 1 -94 33 -68 16 13 19 38 9 64 -7 19 -25 21 -42
4z"/>
<path d="M3077 494 c-12 -13 -7 -72 6 -77 24 -9 39 9 35 44 -3 32 -24 49 -41
33z"/>
<path d="M3237 494 c-12 -13 -7 -72 6 -77 24 -9 39 9 35 44 -3 32 -24 49 -41
33z"/>
<path d="M3475 490 c-4 -6 5 -10 20 -10 15 0 24 4 20 10 -3 6 -12 10 -20 10
-8 0 -17 -4 -20 -10z"/>
</g>
</svg>
